<svg xmlns="http://www.w3.org/2000/svg" width="225" height="225" viewBox="0 0 225 225" version="1.1"><path d="M -0 112.504 C -0 225.009, 0 225.009, 112.750 224.754 C 225.500 224.500, 225.500 224.500, 225.754 112.250 C 226.009 0, 226.009 0, 113.004 0 C 0 0, 0 0, -0 112.504 M 0.483 113 C 0.483 174.875, 0.603 200.188, 0.750 169.250 C 0.897 138.313, 0.897 87.688, 0.750 56.750 C 0.603 25.813, 0.483 51.125, 0.483 113 M 97.312 7.978 C 66.697 23.395, 77.738 69.589, 112.012 69.475 C 145.982 69.362, 156.370 23.585, 126 7.834 C 118.383 3.884, 105.313 3.949, 97.312 7.978 M 147.615 63.465 C 145.541 66.630, 145.547 66.673, 148.475 70.153 C 160.022 83.875, 152.983 115.335, 133.838 135.578 C 128.782 140.924, 128.782 140.924, 124.219 134.712 C 117.883 126.085, 99.424 107.817, 87.669 98.541 C 73.750 87.556, 71.150 81.788, 76.022 72.698 C 79.606 66.011, 74.385 60.744, 68.647 65.256 C 32.069 94.020, 30.278 128.408, 63.504 164 C 76.819 178.263, 103.083 211.397, 106.902 218.750 C 109.777 224.286, 114.056 222.051, 123.179 210.250 C 134.798 195.219, 155.032 170.999, 163.875 161.539 C 194.796 128.457, 192.203 93.736, 156.711 65.591 C 149.988 60.259, 149.752 60.204, 147.615 63.465" stroke="none" fill="#ffffff" fill-rule="evenodd"/><path d="M 147.615 63.465 C 145.541 66.630, 145.547 66.673, 148.475 70.153 C 160.025 83.879, 152.983 115.335, 133.826 135.591 C 128.759 140.949, 128.759 140.949, 131.774 145.724 C 137.891 155.410, 143.205 170.403, 144.190 180.754 C 144.500 184.007, 144.500 184.007, 149.146 178.254 C 151.702 175.089, 157.741 168.225, 162.567 163 C 194.881 128.014, 192.851 94.250, 156.711 65.591 C 149.988 60.259, 149.752 60.204, 147.615 63.465" stroke="none" fill="#f4b221" fill-rule="evenodd"/><path d="M 99.057 7.011 C 66.810 21.989, 76.630 69.347, 112.006 69.451 C 145.560 69.551, 156.335 23.258, 126.317 7.968 C 119.503 4.497, 105.527 4.006, 99.057 7.011 M 66.990 66.786 C 31.722 95.831, 30.699 128.824, 63.962 164.482 C 76 177.387, 90.969 195.876, 101.203 210.479 C 110.860 224.258, 112.250 224.465, 120.695 213.384 C 123.888 209.195, 130.425 200.983, 135.222 195.134 C 144.973 183.246, 145.171 182.591, 142.466 171.119 C 137.142 148.530, 117.060 121.947, 87.653 98.560 C 73.821 87.559, 71.219 81.878, 75.852 72.791 C 79.887 64.875, 74.085 60.943, 66.990 66.786" stroke="none" fill="#058b94" fill-rule="evenodd"/></svg>